<?xml version="1.0" ?><svg id="flat" viewBox="0 0 64 64" xmlns="http://www.w3.org/2000/svg"><defs><style>.cls-1{fill:#dfb21a;}.cls-2{fill:#ffcb1e;}.cls-3{fill:#ffd750;}.cls-4{fill:#ffe078;}.cls-5{fill:#bf9816;}</style></defs><title/><polygon class="cls-1" points="32 57 52 47 52 22 32 32 32 57"/><polygon class="cls-2" points="32 57 12 47 12 22 32 32 32 57"/><polygon class="cls-3" points="62 17 42 7 32 12 52 22 62 17"/><polygon class="cls-4" points="2 27 22 37 32 32 12 22 2 27"/><polygon class="cls-3" points="22 7 2 17 12 22 32 12 22 7"/><polygon class="cls-3" points="32 32 42 37 62 27 52 22 32 32"/><polygon class="cls-5" points="32 12 12 22 32 32 52 22 32 12"/></svg>