<?xml version="1.0" encoding="UTF-8" standalone="no"?>
<!DOCTYPE svg PUBLIC "-//W3C//DTD SVG 1.1//EN" "http://www.w3.org/Graphics/SVG/1.1/DTD/svg11.dtd">
<svg width="100%" height="100%" viewBox="0 0 128 128" version="1.1" xmlns="http://www.w3.org/2000/svg" xmlns:xlink="http://www.w3.org/1999/xlink" xml:space="preserve" xmlns:serif="http://www.serif.com/" style="fill-rule:evenodd;clip-rule:evenodd;stroke-linejoin:round;stroke-miterlimit:2;">
    <g id="Big" transform="matrix(1.77741,0.533983,-0.485826,1.61711,-7.55418,-21.5466)">
        <path d="M44.142,32.105C42.131,31.782 40.089,31.782 38.079,32.105L37.092,35.82C35.181,36.306 33.357,37.137 31.693,38.278L28.605,36.418C26.976,37.752 25.532,39.339 24.318,41.13L26.01,44.524C24.972,46.353 24.217,48.358 23.774,50.458L20.394,51.543C20.1,53.752 20.1,55.997 20.394,58.206L23.774,59.291C24.217,61.391 24.972,63.396 26.01,65.225L24.318,68.619C25.532,70.41 26.976,71.997 28.605,73.331L31.693,71.472C33.357,72.612 35.181,73.443 37.092,73.93L38.079,77.644C40.089,77.967 42.131,77.967 44.142,77.644L45.129,73.93C47.039,73.443 48.863,72.612 50.527,71.472L53.615,73.331C55.244,71.997 56.689,70.41 57.902,68.619L56.21,65.225C57.248,63.396 58.004,61.391 58.447,59.291L61.826,58.206C62.12,55.997 62.12,53.752 61.826,51.543L58.447,50.458C58.004,48.358 57.248,46.353 56.21,44.524L57.902,41.13C56.689,39.339 55.244,37.752 53.615,36.418L50.527,38.278C48.863,37.137 47.039,36.306 45.129,35.82L44.142,32.105ZM41.11,44.148C46.497,44.148 50.87,48.954 50.87,54.875C50.87,60.795 46.497,65.601 41.11,65.601C35.724,65.601 31.351,60.795 31.351,54.875C31.351,48.954 35.724,44.148 41.11,44.148Z" style="fill:rgb(235,235,235);"/>
        <clipPath id="_clip1">
            <path d="M44.142,32.105C42.131,31.782 40.089,31.782 38.079,32.105L37.092,35.82C35.181,36.306 33.357,37.137 31.693,38.278L28.605,36.418C26.976,37.752 25.532,39.339 24.318,41.13L26.01,44.524C24.972,46.353 24.217,48.358 23.774,50.458L20.394,51.543C20.1,53.752 20.1,55.997 20.394,58.206L23.774,59.291C24.217,61.391 24.972,63.396 26.01,65.225L24.318,68.619C25.532,70.41 26.976,71.997 28.605,73.331L31.693,71.472C33.357,72.612 35.181,73.443 37.092,73.93L38.079,77.644C40.089,77.967 42.131,77.967 44.142,77.644L45.129,73.93C47.039,73.443 48.863,72.612 50.527,71.472L53.615,73.331C55.244,71.997 56.689,70.41 57.902,68.619L56.21,65.225C57.248,63.396 58.004,61.391 58.447,59.291L61.826,58.206C62.12,55.997 62.12,53.752 61.826,51.543L58.447,50.458C58.004,48.358 57.248,46.353 56.21,44.524L57.902,41.13C56.689,39.339 55.244,37.752 53.615,36.418L50.527,38.278C48.863,37.137 47.039,36.306 45.129,35.82L44.142,32.105ZM41.11,44.148C46.497,44.148 50.87,48.954 50.87,54.875C50.87,60.795 46.497,65.601 41.11,65.601C35.724,65.601 31.351,60.795 31.351,54.875C31.351,48.954 35.724,44.148 41.11,44.148Z"/>
        </clipPath>
        <g clip-path="url(#_clip1)">
            <g id="Windows-Logo" serif:id="Windows Logo" transform="matrix(0.904917,-0.298811,0.258388,0.945321,-3.48023,17.7697)">
                <g transform="matrix(1.01041,0,0,1.01041,0.43975,-11.9672)">
                    <rect x="6.103" y="31.923" width="28.018" height="29.691" style="fill:rgb(230,76,31);"/>
                </g>
                <g transform="matrix(1.01041,0,0,1.01041,28.7495,-11.9672)">
                    <rect x="6.103" y="31.923" width="28.018" height="29.691" style="fill:rgb(127,186,0);"/>
                </g>
                <g transform="matrix(1.01041,0,0,1.01041,28.7495,18.0328)">
                    <rect x="6.103" y="31.923" width="28.018" height="29.691" style="fill:rgb(255,185,0);"/>
                </g>
                <g transform="matrix(1.01041,0,0,1.01041,0.43975,18.0328)">
                    <rect x="6.103" y="31.923" width="28.018" height="29.691" style="fill:rgb(0,164,239);"/>
                </g>
            </g>
        </g>
    </g>
    <g id="Medium" transform="matrix(1.24777,-0.597584,0.54369,1.13524,15.4614,22.4497)">
        <path d="M45.141,32.293C42.479,31.719 39.741,31.719 37.079,32.293L35.788,36.21C33.289,37.071 30.993,38.528 29.064,40.476L25.333,39.747C23.55,41.994 22.181,44.6 21.302,47.421L23.743,50.608C23.171,53.418 23.171,56.332 23.743,59.141L21.302,62.329C22.181,65.149 23.55,67.755 25.333,70.002L29.064,69.273C30.993,71.222 33.289,72.679 35.788,73.54L37.079,77.456C39.741,78.03 42.479,78.03 45.141,77.456L46.432,73.54C48.932,72.679 51.228,71.222 53.156,69.273L56.887,70.002C58.67,67.755 60.039,65.149 60.918,62.329L58.478,59.141C59.049,56.332 59.049,53.418 58.478,50.608L60.918,47.421C60.039,44.6 58.67,41.994 56.887,39.747L53.156,40.476C51.228,38.528 48.932,37.071 46.432,36.21L45.141,32.293ZM41.11,44.087C46.527,44.087 50.925,48.921 50.925,54.875C50.925,60.828 46.527,65.662 41.11,65.662C35.693,65.662 31.296,60.828 31.296,54.875C31.296,48.921 35.693,44.087 41.11,44.087Z" style="fill:rgb(153,153,153);"/>
        <clipPath id="_clip2">
            <path d="M45.141,32.293C42.479,31.719 39.741,31.719 37.079,32.293L35.788,36.21C33.289,37.071 30.993,38.528 29.064,40.476L25.333,39.747C23.55,41.994 22.181,44.6 21.302,47.421L23.743,50.608C23.171,53.418 23.171,56.332 23.743,59.141L21.302,62.329C22.181,65.149 23.55,67.755 25.333,70.002L29.064,69.273C30.993,71.222 33.289,72.679 35.788,73.54L37.079,77.456C39.741,78.03 42.479,78.03 45.141,77.456L46.432,73.54C48.932,72.679 51.228,71.222 53.156,69.273L56.887,70.002C58.67,67.755 60.039,65.149 60.918,62.329L58.478,59.141C59.049,56.332 59.049,53.418 58.478,50.608L60.918,47.421C60.039,44.6 58.67,41.994 56.887,39.747L53.156,40.476C51.228,38.528 48.932,37.071 46.432,36.21L45.141,32.293ZM41.11,44.087C46.527,44.087 50.925,48.921 50.925,54.875C50.925,60.828 46.527,65.662 41.11,65.662C35.693,65.662 31.296,60.828 31.296,54.875C31.296,48.921 35.693,44.087 41.11,44.087Z"/>
        </clipPath>
        <g clip-path="url(#_clip2)">
            <g id="Linux" transform="matrix(1.35814,0.714918,-0.650442,1.49276,39.3479,53.947)">
                <g transform="matrix(1,0,0,1,-24,-24)">
                    <g transform="matrix(1,0,0,1,0,-2)">
                        <path d="M20.1,18.2L20.2,20.5L18.6,23.5L16.1,28.4L15.6,32.5L17.4,38.3L21.5,40.6L27.7,40.6L33.5,36.2L36.1,29.3L30.1,22L28.4,17.9L20.1,18.2Z" style="fill:rgb(236,239,241);fill-rule:nonzero;"/>
                    </g>
                    <g transform="matrix(1,0,0,1,0,-2)">
                        <path d="M34.3,23.9C32.7,21.6 31.4,20.2 30.7,17.3C30,14.4 30.9,15.2 30.3,12.7C30,11.4 29.5,10.5 29,9.8C28.4,9.1 27.7,8.7 27.3,8.6C26.4,8.1 24.3,7.3 21.7,8.7C19,10.1 19.3,13.1 19.8,19.2C19.8,19.6 19.7,20.1 19.5,20.5C19.1,21.4 18.4,22.2 17.8,22.9C17.1,23.9 16.4,24.9 15.9,26C14.7,28.3 13.6,31.2 13.9,32.3C14.4,32.2 20.7,41.8 20.7,42C21.1,41.9 22.8,41.9 24.3,41.9C26.4,41.8 27.6,41.7 29.3,42.1C29.3,41.8 29.2,41.5 29.2,41.2C29.2,40.6 29.3,40.1 29.4,39.4C29.5,38.9 29.6,38.4 29.7,37.8C28.7,38.7 26.9,39.7 25.2,40C23.7,40.3 21.2,39.8 20,38.3C20.1,38.3 20.3,38.3 20.4,38.2C20.7,38.1 21,38 21.1,37.8C21.4,37.3 21.2,36.8 21,36.5C20.8,36.2 19.3,35.1 18.6,34.5C17.9,33.9 17.5,33.6 17.1,33.2C17.1,33.2 16.5,32.6 16.3,32.4C16.1,32.2 16,32 15.9,31.9C15.7,31.4 15.6,30.8 15.7,30C15.8,28.9 16.2,28 16.7,27C16.9,26.6 17.4,25.8 17.4,25.8C17.4,25.8 15.7,30 16.6,31.3C16.6,31.3 16.7,30 17.1,28.7C17.4,27.8 17.9,26.5 18.5,25.8C19.1,25.1 20.6,22.5 20.7,20.9C20.7,20.2 20.8,19.5 20.8,19C20.4,18.6 27.4,17.6 27.8,18.7C27.9,19.1 29.3,22.7 30.1,24.6C30.5,25.5 31,26.3 31.3,27.3C31.6,28.4 31.8,29.9 31.8,31.4C31.8,31.7 31.8,32.2 31.7,32.7C31.9,32.7 35.8,28.5 31.2,25C31.2,25 34,26.3 34.1,28.9C34.2,31 33.3,32.7 33.1,33C33.2,33 35.2,33.9 35.3,33.9C35.7,33.9 36.5,33.6 36.5,33.6C36.6,33.3 36.9,32.5 36.9,32.2C37.6,29.9 35.9,26.2 34.3,23.9Z" style="fill:rgb(38,50,56);fill-rule:nonzero;"/>
                    </g>
                    <g transform="matrix(1,0,0,1,0,-2)">
                        <ellipse cx="21.6" cy="15.3" rx="1.3" ry="2" style="fill:rgb(236,239,241);"/>
                        <ellipse cx="26.1" cy="15.2" rx="1.7" ry="2.3" style="fill:rgb(236,239,241);"/>
                    </g>
                    <g transform="matrix(1,0,0,1,0,-2)">
                        <g transform="matrix(-0.1254,-0.9921,0.9921,-0.1254,8.9754,38.9969)">
                            <ellipse cx="21.7" cy="15.5" rx="1.2" ry="0.7" style="fill:rgb(33,33,33);"/>
                        </g>
                        <ellipse cx="26" cy="15.6" rx="1" ry="1.3" style="fill:rgb(33,33,33);"/>
                    </g>
                    <g transform="matrix(1,0,0,1,0,-2)">
                        <path d="M39.3,37.6C38.9,37.4 38.2,37.1 37.6,36.2C37.3,35.7 37.4,34.3 36.9,33.7C36.6,33.3 36.2,33.5 36.1,33.5C35.2,33.7 33.1,35.1 31.7,33.5C31.5,33.3 31.2,33 30.7,33C30.2,33 30,33.2 29.8,33.6C29.6,34 29.6,34.3 29.6,35.3C29.6,36.1 29.6,37 29.5,37.7C29.3,39.4 29,40.4 29,41.4C29,42.5 29.3,43.2 29.7,43.5C30,43.8 30.5,44 31.6,44C32.7,44 33.4,43.6 34.1,42.9C34.6,42.4 35,42.2 36.4,41.2C37.5,40.5 39.2,39.6 39.5,39.3C39.7,39.1 40,39 40,38.4C40,37.9 39.6,37.7 39.3,37.6Z" style="fill:rgb(255,193,7);fill-rule:nonzero;"/>
                        <path d="M19.2,37.9C18.2,36.3 18.1,36 17.4,35C16.8,34 15.5,32.1 14.7,32.1C14.1,32.1 13.8,32.4 13.4,32.8C13,33.2 12.6,34.1 11.9,34.6C11.3,35.1 9.6,35 9.2,35.6C8.8,36.2 9.6,37.1 9.6,38.6C9.6,39.2 9.1,39.6 9,40C8.9,40.5 8.8,40.8 9,41.2C9.4,41.8 9.9,42 13.3,42.7C15.1,43.1 16.8,44.1 17.9,44.2C19,44.3 20.9,44.2 20.9,41.5C21,39.9 20.1,39.5 19.2,37.9Z" style="fill:rgb(255,193,7);fill-rule:nonzero;"/>
                        <path d="M21.1,19.8C20.5,19.4 20,19 20,18.4C20,17.8 20.4,17.6 21,17.1C21.1,17 22.2,16 23.3,16C24.4,16 25.7,16.7 26.2,16.9C27.1,17.1 28,17.3 27.9,18C27.8,19 27.7,19.2 26.7,19.7C26,19.9 24.7,21 23.8,21C23.4,21 22.8,21 22.4,20.9C22.1,20.8 21.6,20.3 21.1,19.8Z" style="fill:rgb(255,193,7);fill-rule:nonzero;"/>
                    </g>
                    <g transform="matrix(1,0,0,1,0,-2)">
                        <path d="M20.9,19C21.1,19.2 21.4,19.4 21.7,19.5C21.9,19.6 22.2,19.7 22.2,19.7L23.1,19.7C23.6,19.7 24.3,19.5 25,19.1C25.7,18.8 25.8,18.6 26.3,18.4C26.8,18.1 27.3,17.8 27.1,17.7C26.9,17.6 26.7,17.7 26,18.1C25.4,18.5 24.9,18.7 24.3,19C24,19.1 23.6,19.3 23.3,19.3L22.4,19.3C22.1,19.3 21.9,19.2 21.6,19.1C21.4,19 21.3,18.9 21.2,18.9C21,18.8 20.6,18.4 20.4,18.3C20.4,18.3 20.2,18.3 20.3,18.4C20.6,18.7 20.7,18.8 20.9,19Z" style="fill:rgb(99,71,3);fill-rule:nonzero;"/>
                        <path d="M23.9,16.8C24,17 24.2,17 24.3,17.1C24.4,17.2 24.5,17.2 24.5,17.2C24.6,17.1 24.5,16.9 24.4,16.9C24.4,16.7 23.9,16.7 23.9,16.8Z" style="fill:rgb(99,71,3);fill-rule:nonzero;"/>
                        <path d="M22.3,17C22.3,17.1 22.5,17.2 22.5,17.1C22.6,17 22.7,16.9 22.8,16.9C23,16.8 22.9,16.7 22.6,16.7C22.4,16.8 22.4,16.9 22.3,17Z" style="fill:rgb(99,71,3);fill-rule:nonzero;"/>
                    </g>
                    <g transform="matrix(1,0,0,1,0,-2)">
                        <path d="M32,34.7L32,35C32.2,35.4 32.7,35.5 33.1,35.5C33.7,35.5 34.3,35.1 34.6,34.7C34.6,34.6 34.7,34.5 34.8,34.4C35,34.1 35.1,33.9 35.2,33.8C35.2,33.8 35.1,33.7 35.1,33.6C35,33.4 34.7,33.2 34.3,33.1C34,33 33.5,32.9 33.3,32.9C32.4,32.8 31.9,33.1 31.6,33.4C31.6,33.4 31.7,33.4 31.7,33.5C31.9,33.7 32,33.9 32,34.2C32.1,34.4 32,34.5 32,34.7Z" style="fill:rgb(69,90,100);fill-rule:nonzero;"/>
                    </g>
                </g>
            </g>
        </g>
    </g>
    <g id="Small" transform="matrix(0.90831,-0.171185,0.155747,0.826394,12.3912,-6.09691)">
        <path d="M47.58,32.989C43.375,31.487 38.845,31.487 34.64,32.989L32.828,37.562C31.311,38.439 29.917,39.552 28.689,40.867L24.172,41.349C21.573,45.28 20.174,50.015 20.174,54.875L23.57,58.183C23.86,60.039 24.393,61.84 25.151,63.53L24.172,68.401C26.771,72.332 30.435,75.259 34.64,76.76L38.552,74.232C40.249,74.502 41.972,74.502 43.668,74.232L47.58,76.76C51.785,75.259 55.449,72.332 58.048,68.401L57.069,63.53C57.828,61.84 58.36,60.039 58.65,58.183L62.047,54.875C62.047,50.015 60.647,45.28 58.048,41.349L53.531,40.867C52.304,39.552 50.91,38.439 49.393,37.562L47.58,32.989ZM41.11,46.937C45.096,46.937 48.332,50.493 48.332,54.875C48.332,59.256 45.096,62.813 41.11,62.813C37.124,62.813 33.888,59.256 33.888,54.875C33.888,50.493 37.124,46.937 41.11,46.937Z" style="fill:rgb(78,78,78);"/>
    </g>
</svg>
